<?xml version="1.0" standalone="no"?>
<!DOCTYPE svg PUBLIC "-//W3C//DTD SVG 20010904//EN"
 "http://www.w3.org/TR/2001/REC-SVG-20010904/DTD/svg10.dtd">
<svg version="1.0" xmlns="http://www.w3.org/2000/svg"
 width="500.000000pt" height="500.000000pt" viewBox="0 0 500.000000 500.000000"
 preserveAspectRatio="xMidYMid meet">
<metadata>
Created by potrace 1.16, written by Peter Selinger 2001-2019
</metadata>
<g transform="translate(0.000000,500.000000) scale(0.100000,-0.100000)"
fill="#000000" stroke="none">
<path d="M793 3080 c-57 -27 -103 -54 -103 -60 0 -12 80 -182 99 -209 7 -11
14 -10 38 7 40 28 131 70 174 79 l36 8 -53 113 c-39 83 -57 112 -71 112 -10
-1 -64 -23 -120 -50z"/>
<path d="M2512 3023 c-29 -60 -52 -111 -52 -114 0 -3 30 -18 68 -32 37 -15 87
-41 112 -57 l45 -30 54 111 c63 129 66 119 -55 178 -128 62 -113 66 -172 -56z"/>
<path d="M3927 2254 c-4 -4 -7 -24 -7 -44 l0 -37 -47 4 c-42 4 -51 2 -73 -22
-24 -26 -25 -32 -28 -178 -2 -130 0 -157 15 -187 24 -46 64 -61 104 -38 16 10
29 13 29 8 0 -6 25 -10 55 -10 l55 0 -2 253 -3 252 -45 3 c-25 2 -49 0 -53 -4z"/>
<path d="M2321 2153 c-18 -17 -32 -43 -36 -65 l-6 -38 55 0 c49 0 55 2 58 23
5 35 23 26 26 -14 3 -35 2 -36 -43 -49 -69 -19 -95 -56 -95 -136 0 -85 18
-121 65 -130 27 -5 41 -2 55 11 12 11 20 13 20 7 0 -8 20 -12 55 -12 l55 0 0
181 c0 104 -4 188 -10 200 -16 29 -64 49 -119 49 -41 0 -56 -5 -80 -27z"/>
<path d="M2580 1920 l0 -260 55 0 55 0 0 45 0 45 38 -5 c49 -7 84 12 99 55 7
19 12 90 12 156 1 215 -4 222 -154 223 l-105 0 0 -259z"/>
<path d="M2914 2146 l-34 -34 0 -136 c0 -164 11 -199 67 -222 54 -23 120 -12
154 24 25 28 46 112 33 133 -3 5 -27 9 -54 9 l-49 0 -3 -42 c-2 -31 -8 -44
-20 -46 -16 -3 -18 5 -18 57 l0 60 73 3 c72 3 72 3 75 33 8 65 -9 137 -38 167
-25 25 -36 28 -90 28 -57 0 -65 -3 -96 -34z"/>
<path d="M3209 2151 c-21 -22 -29 -39 -29 -65 l0 -36 49 0 c44 0 50 3 53 23 5
36 33 27 33 -11 0 -31 -4 -35 -55 -55 -64 -26 -90 -65 -90 -137 0 -95 60 -153
121 -118 16 10 29 13 29 8 0 -6 25 -10 56 -10 l55 0 -3 186 -3 186 -33 29
c-28 25 -40 29 -93 29 -54 0 -64 -3 -90 -29z"/>
<path d="M3470 1965 l0 -215 55 0 55 0 0 163 c0 158 6 197 29 183 7 -5 11 -63
11 -177 l0 -169 55 0 55 0 0 180 c0 223 -10 250 -88 250 -14 0 -34 -7 -44 -17
-17 -15 -18 -15 -18 0 0 14 -10 17 -55 17 l-55 0 0 -215z"/>
<path d="M4121 2154 c-40 -33 -51 -77 -50 -199 0 -113 13 -160 50 -187 56 -42
158 -29 193 24 19 30 31 165 21 254 -6 59 -11 72 -40 101 -29 29 -39 33 -88
33 -45 0 -61 -5 -86 -26z"/>
</g>
</svg>
