<?xml version="1.0" standalone="no"?>
<!DOCTYPE svg PUBLIC "-//W3C//DTD SVG 20010904//EN"
 "http://www.w3.org/TR/2001/REC-SVG-20010904/DTD/svg10.dtd">
<svg version="1.0" xmlns="http://www.w3.org/2000/svg"
 width="3378.000000pt" height="1383.000000pt" viewBox="0 0 3378.000000 1383.000000"
 preserveAspectRatio="xMidYMid meet">
<metadata>
Created by potrace 1.16, written by Peter Selinger 2001-2019
</metadata>
<g transform="translate(0.000000,1383.000000) scale(0.100000,-0.100000)"
fill="#000000" stroke="none">
<path d="M0 6915 l0 -6915 16890 0 16890 0 0 6915 0 6915 -16890 0 -16890 0 0
-6915z m712 2188 c14 -38 185 -468 378 -958 194 -489 471 -1191 616 -1560 439
-1110 497 -1256 504 -1248 4 5 145 359 314 788 368 932 941 2382 1093 2765
l110 275 91 3 c56 2 92 -1 92 -7 0 -10 -159 -417 -435 -1111 -86 -217 -231
-584 -322 -815 -91 -231 -281 -712 -423 -1070 -141 -357 -295 -747 -342 -865
l-84 -215 -92 -3 c-86 -3 -92 -1 -105 20 -8 13 -89 212 -180 443 -92 231 -246
620 -343 865 -96 245 -314 796 -484 1225 -379 960 -601 1518 -607 1528 -2 4
40 7 94 7 l98 0 27 -67z m364 45 c3 -13 90 -232 191 -488 102 -256 296 -748
433 -1095 136 -346 328 -830 425 -1075 98 -245 183 -462 191 -483 13 -36 12
-41 -33 -142 -26 -58 -50 -105 -53 -105 -7 0 -76 172 -450 1120 -153 388 -381
966 -508 1285 -281 712 -392 994 -392 1000 0 3 42 5 94 5 89 0 95 -1 102 -22z
m556 -438 c98 -250 262 -666 365 -925 102 -258 261 -663 354 -898 l168 -428
-40 -107 c-23 -59 -44 -113 -48 -120 -4 -7 -75 159 -168 395 -89 224 -252 638
-363 918 -110 281 -297 753 -415 1050 -118 297 -217 548 -221 558 -6 16 1 18
92 15 l97 -3 179 -455z m394 -35 c404 -1017 674 -1708 674 -1724 0 -27 -83
-242 -90 -234 -4 4 -92 224 -195 488 -103 264 -246 626 -317 805 -71 179 -202
510 -290 735 -88 226 -162 414 -165 418 -3 4 39 6 92 5 l97 -3 194 -490z
m2271 483 c-25 -61 -491 -1235 -624 -1573 -196 -497 -453 -1144 -768 -1940
l-222 -560 -93 -3 -92 -3 6 26 c4 14 130 337 281 718 151 381 360 910 466
1177 105 267 339 860 520 1319 181 458 332 837 335 842 3 5 48 9 101 9 72 0
94 -3 90 -12z m380 0 c-3 -7 -75 -191 -160 -409 -86 -218 -211 -533 -277 -700
-67 -167 -243 -610 -390 -984 -268 -680 -635 -1605 -733 -1850 l-52 -130 -92
-3 c-51 -1 -93 0 -93 4 0 7 393 1005 600 1524 78 195 233 587 344 870 112 283
308 779 436 1103 l234 587 94 0 c71 0 93 -3 89 -12z m381 -6 c-3 -10 -116
-297 -251 -638 -135 -340 -346 -871 -468 -1179 -121 -308 -344 -870 -494
-1250 -150 -379 -299 -755 -330 -835 -32 -80 -62 -151 -68 -157 -10 -14 -172
-19 -180 -5 -3 4 22 75 55 157 32 83 126 319 208 525 82 206 259 654 393 995
135 341 399 1009 587 1485 188 476 346 877 352 893 10 27 10 27 105 27 87 0
95 -2 91 -18z m26396 -357 c367 -48 736 -213 1024 -458 269 -228 489 -571 598
-932 57 -189 69 -282 69 -545 0 -216 -3 -258 -23 -359 -63 -310 -211 -626
-409 -871 -123 -152 -313 -319 -478 -420 -307 -188 -613 -282 -965 -297 -540
-22 -1070 188 -1458 578 -479 480 -676 1200 -506 1849 103 393 331 759 629
1008 280 235 635 394 995 446 130 19 384 19 524 1z m-24038 -66 c251 -24 480
-88 699 -193 216 -104 378 -219 531 -378 277 -287 450 -671 493 -1098 7 -63
11 -456 11 -1041 l0 -940 -87 3 -88 3 -5 1005 c-5 998 -6 1006 -28 1113 -110
519 -423 932 -883 1163 -286 143 -572 202 -924 191 -304 -10 -529 -71 -789
-215 -501 -276 -833 -798 -864 -1360 -23 -406 71 -768 280 -1074 74 -110 280
-321 388 -400 237 -173 506 -286 795 -335 150 -25 419 -23 550 5 85 18 190 50
258 77 16 7 18 0 15 -86 l-3 -93 -60 -19 c-485 -149 -1080 -64 -1530 218 -310
195 -561 469 -696 761 -247 533 -239 1152 21 1676 187 377 475 659 858 840
322 153 686 214 1058 177z m11540 0 c376 -36 737 -172 1016 -382 405 -303 647
-746 708 -1292 6 -53 10 -473 10 -1033 l0 -943 -87 3 -88 3 -5 1005 c-5 990
-6 1007 -28 1110 -76 359 -235 649 -492 893 -266 253 -622 411 -1030 458 -150
17 -426 7 -565 -21 -366 -73 -711 -269 -953 -542 -248 -279 -400 -642 -420
-1003 -23 -407 66 -755 276 -1070 77 -116 276 -322 392 -407 240 -175 506
-286 796 -334 144 -24 405 -24 524 -1 74 15 230 60 283 82 16 7 18 0 15 -86
l-3 -93 -60 -19 c-467 -144 -1041 -70 -1483 189 -515 304 -831 776 -907 1357
-99 767 262 1513 912 1881 360 204 762 287 1189 245z m-6976 -113 c627 -126
1097 -614 1171 -1216 22 -178 -5 -422 -67 -608 -153 -462 -517 -778 -1024
-890 -112 -24 -127 -25 -598 -29 l-483 -5 3 89 3 88 475 6 c509 6 517 7 686
64 684 230 1025 999 723 1633 -17 34 -57 102 -89 150 -177 266 -445 450 -769
530 l-106 26 -1062 3 -1063 4 0 -1686 0 -1685 -90 0 -90 0 0 1775 0 1776 1148
-4 c1034 -3 1155 -5 1232 -21z m1750 -1751 l0 -1775 -85 0 -85 0 0 1775 0
1775 85 0 85 0 0 -1775z m358 -2 l2 -1773 -90 0 -90 0 0 1768 c0 973 3 1772 7
1776 4 4 43 5 88 4 l80 -3 3 -1772z m360 22 c1 -962 0 -1760 -3 -1772 -5 -22
-11 -23 -90 -23 l-85 0 0 1775 0 1776 88 -3 87 -3 3 -1750z m2050 1663 l3 -88
-851 0 -850 0 0 -90 0 -90 850 0 851 0 -3 -87 -3 -88 -847 -3 -848 -2 0 -85 0
-85 848 -2 847 -3 3 -87 3 -88 -851 0 -850 0 0 -220 0 -220 800 0 800 0 0 -90
0 -90 -800 0 -800 0 0 -90 0 -90 800 0 800 0 0 -85 0 -85 -797 -2 -798 -3 -3
-87 -3 -88 801 0 800 0 0 -90 0 -90 -800 0 -800 0 0 -220 0 -220 848 -2 847
-3 3 -87 3 -88 -851 0 -850 0 0 -90 0 -90 850 0 851 0 -3 -87 -3 -88 -847 -3
-848 -2 0 -85 0 -85 848 -2 847 -3 3 -87 3 -88 -941 0 -940 0 0 1768 c0 973 3
1772 7 1775 3 4 425 6 937 5 l931 -3 3 -87z m4992 -148 c75 -129 257 -444 405
-700 148 -256 435 -753 639 -1105 203 -352 481 -833 618 -1070 l248 -430 -97
-3 c-53 -1 -100 1 -105 6 -4 4 -85 141 -179 303 -215 369 -742 1277 -1099
1894 -463 799 -568 979 -584 1000 -14 18 -15 -145 -16 -1592 l0 -1613 -90 0
-90 0 0 1768 c0 973 3 1772 7 1776 4 4 52 5 107 4 l100 -3 136 -235z m294 203
c13 -21 124 -211 247 -423 122 -212 365 -630 539 -930 174 -300 410 -707 525
-905 114 -198 325 -560 467 -804 142 -244 258 -446 258 -448 0 -1 -46 -3 -102
-3 l-103 0 -210 363 c-115 199 -277 479 -360 622 -84 143 -226 388 -317 545
-91 157 -304 524 -473 815 -570 982 -678 1170 -683 1187 -4 16 5 18 92 18 l96
0 24 -37z m408 20 c8 -10 166 -279 351 -598 349 -605 549 -950 1097 -1895 180
-311 389 -671 463 -800 l136 -235 -101 -3 c-56 -1 -105 1 -109 5 -7 8 -236
402 -774 1333 -320 555 -711 1228 -1025 1770 -136 234 -245 428 -243 433 2 4
46 7 97 7 76 0 96 -3 108 -17z m517 -173 c59 -102 298 -513 531 -915 233 -401
506 -874 608 -1050 497 -859 614 -1061 623 -1069 5 -6 9 621 9 1607 l0 1618
88 -3 87 -3 3 -1772 2 -1773 -107 0 -108 0 -54 93 c-29 50 -182 315 -339 587
-157 272 -356 617 -442 765 -87 149 -253 437 -370 640 -117 204 -274 476 -350
605 -240 412 -490 848 -490 855 0 3 45 4 101 3 l101 -3 107 -185z m1239 -870
c1 -665 -1 -1051 -7 -1045 -6 6 -46 76 -90 157 l-81 147 0 901 0 901 88 -3 87
-3 3 -1055z m347 1048 c3 -7 4 -620 3 -1362 l-3 -1350 -87 146 -88 146 0 1210
c0 665 3 1212 7 1215 12 13 163 8 168 -5z m3020 1 c698 -61 1305 -542 1530
-1213 112 -333 113 -740 3 -1086 -41 -129 -142 -338 -221 -457 -237 -355 -599
-613 -1014 -724 -218 -58 -227 -59 -1410 -59 l-1083 0 0 1768 c0 973 3 1772 7
1775 11 12 2056 8 2188 -4z m-19761 -278 c328 -66 588 -201 801 -415 257 -258
399 -566 435 -942 6 -66 10 -465 10 -1011 l0 -903 -90 0 -89 0 -4 978 c-3 945
-4 980 -24 1072 -120 547 -492 922 -1034 1038 -518 112 -1011 -25 -1351 -376
-184 -190 -299 -408 -355 -672 -28 -132 -25 -420 6 -559 78 -355 253 -621 527
-803 265 -177 518 -253 839 -253 188 1 306 20 459 76 44 16 81 29 83 29 2 0 3
-40 3 -89 l0 -88 -85 -27 c-544 -173 -1159 -37 -1562 347 -487 464 -611 1184
-307 1788 198 395 531 666 960 784 163 45 252 55 469 51 155 -3 224 -8 309
-25z m11562 -5 c319 -67 568 -199 779 -410 259 -260 401 -571 435 -953 7 -75
10 -444 8 -1008 l-3 -890 -87 -3 -87 -3 -4 978 c-3 946 -4 981 -24 1073 -59
269 -166 477 -338 659 -312 327 -809 477 -1310 395 -474 -78 -893 -436 -1045
-892 -54 -162 -65 -239 -64 -442 0 -206 17 -312 75 -477 146 -414 487 -712
949 -828 274 -69 587 -54 834 39 37 14 70 26 72 26 2 0 4 -40 4 -89 l0 -88
-82 -26 c-553 -174 -1161 -40 -1565 346 -492 471 -612 1189 -301 1802 145 286
368 510 650 651 170 86 305 130 484 159 144 23 466 14 620 -19z m-7201 -81
c398 -64 751 -378 857 -760 31 -114 32 -383 0 -497 -51 -188 -135 -334 -266
-464 -142 -140 -298 -231 -485 -282 l-96 -26 -472 -4 -473 -3 0 85 0 84 448 5
c487 4 502 6 657 66 205 79 400 268 478 464 44 110 60 213 55 361 -5 151 -29
239 -100 360 -88 150 -286 320 -450 385 -155 62 -138 62 -1078 59 l-855 -3 -3
-1502 -2 -1503 -85 0 -85 0 0 1595 0 1595 933 0 c771 0 948 -3 1022 -15z
m-4418 -264 c443 -91 780 -390 893 -791 49 -175 50 -203 50 -1197 l0 -933 -85
0 c-74 0 -85 2 -85 18 0 9 -1 438 -3 952 -5 1008 -3 982 -58 1150 -106 320
-376 545 -751 626 -127 28 -393 26 -511 -4 -284 -71 -513 -246 -647 -495 -81
-149 -111 -281 -111 -477 1 -412 171 -710 501 -879 278 -143 611 -170 905 -75
44 15 97 35 117 45 21 11 42 19 48 19 7 0 10 -31 8 -92 l-3 -92 -95 -32 c-154
-53 -262 -69 -450 -69 -183 1 -296 19 -459 77 -108 38 -163 66 -271 135 -237
154 -388 385 -457 695 -14 66 -18 124 -17 278 1 177 3 204 27 292 56 210 151
374 306 528 192 191 415 303 677 339 109 16 354 6 471 -18z m11540 0 c246 -51
450 -157 613 -321 175 -174 275 -378 315 -640 12 -78 15 -260 15 -1027 l0
-933 -84 0 -84 0 -5 953 c-5 1026 -3 999 -58 1167 -137 415 -562 673 -1069
647 -322 -17 -606 -170 -778 -421 -127 -184 -174 -341 -173 -580 1 -329 116
-595 332 -768 308 -245 773 -306 1156 -152 46 19 86 34 89 34 3 0 3 -41 2 -92
l-3 -91 -97 -33 c-161 -55 -252 -69 -443 -69 -182 1 -262 12 -418 61 -239 76
-459 227 -583 401 -25 33 -64 101 -88 150 -82 166 -115 303 -123 506 -12 300
58 542 222 758 194 258 475 424 791 468 109 16 354 6 471 -18z m-7223 -81
c169 -20 285 -75 417 -198 129 -121 188 -227 211 -379 13 -92 0 -225 -33 -322
-49 -144 -181 -289 -330 -363 -146 -72 -143 -71 -647 -75 l-453 -4 3 88 3 88
440 5 440 5 72 26 c140 52 249 151 294 269 51 134 48 274 -7 389 -38 78 -161
198 -245 239 -122 60 -139 62 -846 62 l-643 0 0 -1330 0 -1330 -90 0 -90 0 0
1413 c0 778 3 1417 7 1420 11 11 1399 8 1497 -3z m9775 -244 c44 -81 81 -153
82 -160 1 -6 1 -554 0 -1218 l-1 -1208 -85 0 -85 0 0 1372 c0 754 2 1369 4
1367 2 -2 40 -71 85 -153z m-14109 -36 c280 -72 488 -263 568 -520 40 -131 43
-213 40 -1145 l-3 -890 -87 -3 -87 -3 -3 948 c-3 868 -5 953 -21 1008 -33 112
-76 185 -156 266 -87 87 -176 136 -306 170 -107 27 -301 30 -395 5 -209 -57
-396 -230 -461 -428 -21 -63 -24 -92 -24 -208 0 -153 19 -231 82 -353 161
-307 682 -409 1076 -211 l68 34 -3 -92 -3 -92 -82 -33 c-160 -65 -228 -77
-428 -77 -163 0 -189 3 -280 27 -319 86 -513 276 -587 575 -31 123 -31 343 0
455 73 268 300 496 563 566 111 30 112 30 284 26 124 -2 179 -8 245 -25z
m11540 0 c276 -69 489 -263 568 -520 40 -131 43 -213 40 -1145 l-3 -890 -87
-3 -87 -3 -3 948 c-4 1050 0 989 -70 1133 -38 78 -147 191 -228 237 -163 93
-397 123 -584 76 -172 -42 -344 -183 -425 -347 -48 -98 -64 -183 -58 -311 6
-132 24 -203 77 -311 113 -231 417 -363 750 -324 126 14 196 34 308 86 l93 43
-3 -92 -3 -91 -69 -29 c-246 -102 -547 -114 -797 -32 -85 29 -209 96 -276 151
-105 86 -195 239 -235 399 -31 125 -31 344 0 456 74 274 296 497 564 568 109
30 111 30 283 26 121 -2 181 -8 245 -25z m-7123 -104 c133 -61 201 -173 190
-314 -11 -139 -74 -225 -196 -262 -59 -19 -93 -20 -487 -20 l-424 0 0 85 0 85
391 0 c249 0 406 4 434 11 64 16 97 56 103 122 5 67 -12 98 -72 127 -41 19
-59 20 -514 20 l-472 0 0 -1150 0 -1150 -90 0 -90 0 0 1240 0 1241 583 -3 582
-3 62 -29z m10052 -509 l81 -148 0 -894 0 -895 -90 0 -90 0 0 1052 c0 631 4
1048 9 1043 5 -6 46 -77 90 -158z"/>
<path d="M31055 8630 c-356 -29 -717 -177 -995 -407 -192 -160 -328 -334 -444
-568 -115 -232 -165 -409 -187 -661 -46 -529 187 -1108 588 -1457 272 -237
629 -397 974 -437 149 -18 403 -8 543 19 488 98 923 396 1170 803 328 540 361
1152 92 1711 -190 396 -508 696 -916 866 -253 106 -551 153 -825 131z m313
-181 c468 -51 896 -307 1156 -694 103 -152 204 -391 240 -568 110 -532 -64
-1096 -453 -1469 -218 -210 -485 -351 -793 -420 -90 -20 -130 -23 -318 -23
-188 0 -228 3 -318 23 -326 73 -585 214 -813 441 -231 232 -370 490 -440 821
-19 87 -23 138 -23 295 -1 218 18 338 80 517 210 606 711 1002 1369 1081 66 8
221 6 313 -4z"/>
<path d="M30980 8265 c-259 -43 -504 -157 -712 -332 -228 -193 -396 -479 -464
-794 -26 -119 -27 -428 -1 -549 61 -287 191 -526 396 -730 125 -125 212 -188
361 -263 201 -101 407 -149 640 -150 388 0 732 143 1005 417 201 203 332 447
391 731 26 126 26 414 0 535 -125 578 -544 1000 -1116 1125 -105 23 -389 29
-500 10z m436 -180 c475 -83 866 -444 990 -913 32 -120 44 -362 25 -493 -59
-397 -324 -759 -688 -935 -181 -88 -322 -118 -543 -118 -183 -1 -267 13 -418
65 -411 144 -731 520 -808 949 -23 129 -20 342 6 470 101 495 499 884 999 974
105 20 328 20 437 1z"/>
<path d="M31076 7919 c-364 -40 -688 -274 -846 -612 -124 -265 -126 -608 -5
-882 67 -150 221 -335 366 -438 91 -64 237 -132 345 -159 75 -19 115 -23 264
-23 214 0 299 18 465 101 213 105 388 280 490 489 65 131 91 223 105 362 11
104 3 247 -20 347 -76 338 -357 652 -685 764 -138 47 -331 68 -479 51z m344
-195 c280 -71 526 -300 621 -577 67 -196 59 -433 -21 -626 -104 -254 -347
-460 -614 -521 -82 -19 -115 -22 -238 -17 -89 3 -165 11 -203 21 -304 86 -545
328 -626 631 -29 107 -32 337 -6 435 47 176 110 283 242 415 140 140 279 217
453 250 96 18 300 13 392 -11z"/>
<path d="M31025 7550 c-95 -25 -138 -44 -215 -95 -131 -87 -241 -228 -286
-369 -35 -106 -43 -267 -20 -376 54 -254 269 -475 522 -536 92 -23 259 -23
344 0 242 63 433 241 506 471 123 390 -107 804 -504 906 -99 25 -251 25 -347
-1z"/>
<path d="M25307 8454 c-4 -4 -7 -722 -7 -1596 l0 -1589 1053 4 c1039 3 1053 3
1144 25 296 69 540 202 758 413 252 245 407 531 471 874 28 150 26 431 -4 582
-115 574 -536 1046 -1085 1218 -229 71 -171 68 -1302 72 -562 2 -1024 1 -1028
-3z m2071 -190 c580 -86 1054 -551 1168 -1144 24 -130 24 -379 -1 -510 -55
-293 -188 -544 -400 -755 -202 -203 -419 -322 -707 -388 -90 -20 -118 -21
-1025 -24 l-933 -4 0 1421 0 1420 896 0 c764 0 912 -2 1002 -16z"/>
<path d="M25660 6860 l0 -1241 843 4 c744 3 850 6 910 20 186 46 337 116 481
223 241 181 417 474 470 779 20 114 21 326 1 436 -76 436 -394 813 -809 958
-172 61 -178 61 -1077 61 l-819 0 0 -1240z m1730 1046 c296 -70 570 -291 706
-571 167 -343 128 -806 -92 -1101 -152 -203 -349 -341 -582 -407 -76 -21 -91
-22 -834 -25 l-758 -3 0 1059 c0 582 3 1062 7 1066 4 4 338 5 743 3 659 -3
743 -5 810 -21z"/>
<path d="M26010 6865 l0 -886 668 3 667 3 87 31 c217 78 395 239 499 449 134
274 114 636 -50 885 -120 183 -298 316 -499 373 -75 21 -95 21 -724 25 l-648
3 0 -886z m1370 673 c138 -51 279 -169 359 -302 80 -133 114 -305 93 -465 -14
-104 -31 -160 -74 -245 -81 -161 -230 -292 -398 -349 -63 -21 -80 -22 -617
-25 l-553 -3 0 711 0 711 558 -3 557 -3 75 -27z"/>
<path d="M26370 6860 l0 -530 428 0 c469 0 497 3 597 60 60 34 150 126 187
190 66 114 89 314 52 441 -42 141 -146 269 -270 330 l-69 34 -462 3 -463 3 0
-531z"/>
</g>
</svg>
